<?xml version="1.0" standalone="no"?>
<!DOCTYPE svg PUBLIC "-//W3C//DTD SVG 20010904//EN"
 "http://www.w3.org/TR/2001/REC-SVG-20010904/DTD/svg10.dtd">
<svg version="1.0" xmlns="http://www.w3.org/2000/svg"
 width="160.000000pt" height="160.000000pt" viewBox="0 0 160.000000 160.000000"
 preserveAspectRatio="xMidYMid meet">

<g transform="translate(0.000000,160.000000) scale(0.100000,-0.100000)"
fill="#000000" stroke="none">
<path d="M0 800 l0 -800 800 0 800 0 0 800 0 800 -800 0 -800 0 0 -800z m600
650 l0 -50 -200 0 -200 0 0 -450 0 -450 50 0 50 0 0 250 0 250 50 0 50 0 0
-250 0 -250 350 0 350 0 0 250 0 250 100 0 100 0 0 -250 0 -250 50 0 50 0 0
450 0 450 -50 0 -50 0 0 -50 0 -50 -50 0 -50 0 0 -50 0 -50 50 0 50 0 0 -50 0
-50 -50 0 -50 0 0 50 0 50 -150 0 -150 0 0 -50 0 -50 50 0 50 0 0 -150 0 -150
-250 0 -250 0 0 250 0 250 50 0 50 0 0 -200 0 -200 100 0 100 0 0 50 0 50 50
0 50 0 0 50 0 50 -100 0 -100 0 0 200 0 200 200 0 200 0 0 -50 0 -50 100 0
100 0 0 50 0 50 100 0 100 0 0 -550 0 -550 -250 0 -250 0 0 -150 0 -150 -150
0 -150 0 0 150 0 150 -300 0 -300 0 0 550 0 550 250 0 250 0 0 -50z m-200
-250 l0 -100 -50 0 -50 0 0 100 0 100 50 0 50 0 0 -100z m600 -550 l0 -50
-250 0 -250 0 0 50 0 50 250 0 250 0 0 -50z m-400 -450 l0 -100 -250 0 -250 0
0 100 0 100 250 0 250 0 0 -100z m900 0 l0 -100 -200 0 -200 0 0 100 0 100
200 0 200 0 0 -100z"/>
</g>
</svg>
