<?xml version="1.0" standalone="no"?>
<!DOCTYPE svg PUBLIC "-//W3C//DTD SVG 20010904//EN"
 "http://www.w3.org/TR/2001/REC-SVG-20010904/DTD/svg10.dtd">
<svg version="1.0" xmlns="http://www.w3.org/2000/svg"
 width="16.000000pt" height="16.000000pt" viewBox="0 0 16.000000 16.000000"
 preserveAspectRatio="xMidYMid meet">

<g transform="translate(0.000000,16.000000) scale(0.100000,-0.100000)"
fill="#000000" stroke="none">
<path d="M25 131 c5 -16 4 -21 -4 -17 -6 4 -11 3 -11 -3 0 -5 4 -12 9 -16 15
-9 25 36 11 49 -10 8 -11 6 -5 -13z"/>
<path d="M105 131 c5 -16 4 -21 -4 -17 -6 4 -11 3 -11 -3 0 -5 4 -12 9 -16 15
-9 25 36 11 49 -10 8 -11 6 -5 -13z"/>
<path d="M57 133 c-4 -3 -7 -13 -7 -22 1 -13 3 -13 11 2 11 19 8 33 -4 20z"/>
<path d="M137 133 c-4 -3 -7 -13 -7 -22 1 -13 3 -13 11 2 11 19 8 33 -4 20z"/>
<path d="M25 51 c5 -16 4 -21 -4 -17 -6 4 -11 3 -11 -3 0 -5 4 -12 9 -16 15
-9 25 36 11 49 -10 8 -11 6 -5 -13z"/>
<path d="M105 51 c5 -16 4 -21 -4 -17 -6 4 -11 3 -11 -3 0 -5 4 -12 9 -16 15
-9 25 36 11 49 -10 8 -11 6 -5 -13z"/>
<path d="M57 53 c-4 -3 -7 -13 -7 -22 1 -13 3 -13 11 2 11 19 8 33 -4 20z"/>
<path d="M137 53 c-4 -3 -7 -13 -7 -22 1 -13 3 -13 11 2 11 19 8 33 -4 20z"/>
</g>
</svg>
