<?xml version="1.0" standalone="no"?>
<!DOCTYPE svg PUBLIC "-//W3C//DTD SVG 20010904//EN"
 "http://www.w3.org/TR/2001/REC-SVG-20010904/DTD/svg10.dtd">
<svg version="1.0" xmlns="http://www.w3.org/2000/svg"
 width="48.000000pt" height="48.000000pt" viewBox="0 0 48.000000 48.000000"
 preserveAspectRatio="xMidYMid meet">

<g transform="translate(0.000000,48.000000) scale(0.100000,-0.100000)"
fill="#000000" stroke="none">
<path d="M244 375 c-4 -8 -15 -15 -26 -15 -13 0 -51 -30 -95 -75 -52 -53 -81
-75 -98 -75 -16 0 -25 -6 -25 -15 0 -36 45 -12 117 60 43 44 82 75 94 75 11 0
22 7 25 15 14 36 53 15 142 -75 49 -50 92 -90 96 -90 3 0 6 7 6 15 0 8 -4 15
-10 15 -5 0 -49 40 -98 90 -87 88 -117 105 -128 75z"/>
<path d="M188 260 c-21 -21 -38 -45 -38 -54 0 -21 -33 -54 -60 -58 -25 -4 -30
-22 -6 -26 20 -4 96 69 96 92 0 10 14 30 31 45 17 16 27 31 22 34 -4 3 -25
-12 -45 -33z"/>
<path d="M367 203 c-3 -5 12 -25 33 -46 21 -21 41 -34 43 -30 3 5 -12 25 -33
46 -21 21 -41 34 -43 30z"/>
<path d="M216 171 c-4 -5 -2 -12 3 -15 5 -4 12 -2 15 3 4 5 2 12 -3 15 -5 4
-12 2 -15 -3z"/>
<path d="M306 173 c-13 -13 -5 -39 18 -61 15 -14 27 -19 31 -12 3 5 -1 13 -9
16 -9 3 -16 17 -16 29 0 25 -12 39 -24 28z"/>
<path d="M186 111 c-4 -5 -2 -12 3 -15 5 -4 12 -2 15 3 4 5 2 12 -3 15 -5 4
-12 2 -15 -3z"/>
</g>
</svg>
